<svg viewBox="0 0 118 26" version="1.1" xmlns="http://www.w3.org/2000/svg">
    <path fill="#232323" d="M92.5348387,18.31375 L91.6376037,16.055 L87.1677419,16.055 L86.319447,18.31375 L83.2851613,18.31375 L88.1302304,6.80875 L90.8382488,6.80875 L95.6343779,18.31375 L92.5348387,18.31375 Z M89.4352995,9.88 L87.9670968,13.82875 L90.8708756,13.82875 L89.4352995,9.88 Z"/>
    <path fill="#232323" d="M82.8283871,13.975 C82.8283871,14.6683368 82.7114758,15.2993722 82.4776498,15.868125 C82.2438237,16.4368778 81.9094031,16.924373 81.4743779,17.330625 C81.0393527,17.736877 80.5146114,18.0537489 79.9001382,18.28125 C79.2856651,18.5087511 78.6032295,18.6225 77.8528111,18.6225 C77.0915169,18.6225 76.4063625,18.5087511 75.7973272,18.28125 C75.1882919,18.0537489 74.6717072,17.736877 74.2475576,17.330625 C73.823408,16.924373 73.497144,16.4368778 73.2687558,15.868125 C73.0403675,15.2993722 72.9261751,14.6683368 72.9261751,13.975 L72.9261751,6.80875 L75.699447,6.80875 L75.699447,13.7475 C75.699447,14.0616682 75.74023,14.3595819 75.8217972,14.64125 C75.9033645,14.9229181 76.0284323,15.1747906 76.1970046,15.396875 C76.3655769,15.6189594 76.5885239,15.7949993 76.8658525,15.925 C77.1431811,16.0550006 77.4776017,16.12 77.8691244,16.12 C78.2606471,16.12 78.5950677,16.0550006 78.8723963,15.925 C79.1497249,15.7949993 79.3753908,15.6189594 79.5494009,15.396875 C79.723411,15.1747906 79.8484789,14.9229181 79.9246083,14.64125 C80.0007377,14.3595819 80.0388018,14.0616682 80.0388018,13.7475 L80.0388018,6.80875 L82.8283871,6.80875 L82.8283871,13.975 Z"/>
    <path fill="#232323" d="M71.3818433,17.615 C70.8163105,17.9075015 70.1556259,18.1458324 69.3997696,18.33 C68.6439133,18.5141676 67.8200966,18.60625 66.9282949,18.60625 C66.0038663,18.60625 65.152861,18.4600015 64.3752534,18.1675 C63.5976459,17.8749985 62.9288046,17.463336 62.3687097,16.9325 C61.8086147,16.401664 61.3708771,15.765212 61.0554839,15.023125 C60.7400906,14.281038 60.5823963,13.4550045 60.5823963,12.545 C60.5823963,11.6241621 60.7428094,10.7900037 61.0636405,10.0425 C61.3844716,9.29499626 61.8276469,8.65854429 62.3931797,8.133125 C62.9587125,7.60770571 63.622116,7.20416807 64.3834101,6.9225 C65.1447043,6.64083193 65.965802,6.5 66.8467281,6.5 C67.7602811,6.5 68.6085675,6.63812362 69.3916129,6.914375 C70.1746583,7.19062638 70.8108731,7.56166434 71.3002765,8.0275 L69.5384332,10.02625 C69.2665424,9.71208176 68.907652,9.45479267 68.4617511,9.254375 C68.0158503,9.05395733 67.5101411,8.95375 66.9446083,8.95375 C66.4552049,8.95375 66.003873,9.04312411 65.5905991,9.221875 C65.1773251,9.40062589 64.8184347,9.64979007 64.513917,9.969375 C64.2093994,10.2889599 63.972858,10.6681228 63.8042857,11.106875 C63.6357134,11.5456272 63.5514286,12.0249974 63.5514286,12.545 C63.5514286,13.075836 63.6275568,13.5633311 63.7798157,14.0075 C63.9320745,14.4516689 64.1577404,14.8335401 64.4568203,15.153125 C64.7559001,15.4727099 65.125666,15.7218741 65.566129,15.900625 C66.0065921,16.0793759 66.5095824,16.16875 67.0751152,16.16875 C67.4013841,16.16875 67.7113349,16.1443752 68.004977,16.095625 C68.298619,16.0468748 68.5705057,15.9683339 68.8206452,15.86 L68.8206452,13.76375 L66.618341,13.76375 L66.618341,11.52125 L71.3818433,11.52125 L71.3818433,17.615 Z"/>
    <path fill="#232323" d="M117.488848,12.52875 C117.488848,13.536255 117.301246,14.4056213 116.926037,15.136875 C116.550828,15.8681287 116.055994,16.4693726 115.441521,16.940625 C114.827048,17.4118774 114.133737,17.7585406 113.361567,17.980625 C112.589397,18.2027094 111.806363,18.31375 111.012442,18.31375 L106.705714,18.31375 L106.705714,6.80875 L110.881935,6.80875 C111.697608,6.80875 112.502392,6.90354072 113.296313,7.093125 C114.090234,7.28270928 114.79714,7.59687281 115.417051,8.035625 C116.036962,8.47437719 116.537233,9.06207965 116.91788,9.79875 C117.298527,10.5354203 117.488848,11.4454112 117.488848,12.52875 Z M114.585069,12.52875 C114.585069,11.8787467 114.479033,11.3397938 114.266959,10.911875 C114.054884,10.4839562 113.772122,10.1427096 113.418664,9.888125 C113.065206,9.63354039 112.662813,9.45208387 112.211475,9.34375 C111.760136,9.23541612 111.29521,9.18125 110.816682,9.18125 L109.430046,9.18125 L109.430046,15.90875 L110.751429,15.90875 C111.251708,15.90875 111.732947,15.8518756 112.195161,15.738125 C112.657376,15.6243744 113.065206,15.4375013 113.418664,15.1775 C113.772122,14.9174987 114.054884,14.5708355 114.266959,14.1375 C114.479033,13.7041645 114.585069,13.1679199 114.585069,12.52875 Z"/>
    <path fill="#232323" d="M59.358894,12.52875 C59.358894,13.536255 59.1712922,14.4056213 58.7960829,15.136875 C58.4208737,15.8681287 57.9260399,16.4693726 57.3115668,16.940625 C56.6970937,17.4118774 56.0037827,17.7585406 55.2316129,17.980625 C54.4594431,18.2027094 53.6764095,18.31375 52.8824885,18.31375 L48.5757604,18.31375 L48.5757604,6.80875 L52.7519816,6.80875 C53.5676538,6.80875 54.3724384,6.90354072 55.1663594,7.093125 C55.9602805,7.28270928 56.6671858,7.59687281 57.2870968,8.035625 C57.9070077,8.47437719 58.4072792,9.06207965 58.7879263,9.79875 C59.1685733,10.5354203 59.358894,11.4454112 59.358894,12.52875 Z M56.4551152,12.52875 C56.4551152,11.8787467 56.3490794,11.3397938 56.1370046,10.911875 C55.9249298,10.4839562 55.6421677,10.1427096 55.2887097,9.888125 C54.9352517,9.63354039 54.5328594,9.45208387 54.0815207,9.34375 C53.6301821,9.23541612 53.1652558,9.18125 52.6867281,9.18125 L51.3000922,9.18125 L51.3000922,15.90875 L52.6214747,15.90875 C53.1217537,15.90875 53.6029931,15.8518756 54.0652074,15.738125 C54.5274217,15.6243744 54.9352517,15.4375013 55.2887097,15.1775 C55.6421677,14.9174987 55.9249298,14.5708355 56.1370046,14.1375 C56.3490794,13.7041645 56.4551152,13.1679199 56.4551152,12.52875 Z"/>
    <path fill="#232323" d="M44.5952995,18.31375 L43.6980645,16.055 L39.2282028,16.055 L38.3799078,18.31375 L35.3456221,18.31375 L40.1906912,6.80875 L42.8987097,6.80875 L47.6948387,18.31375 L44.5952995,18.31375 Z M41.4957604,9.88 L40.0275576,13.82875 L42.9313364,13.82875 L41.4957604,9.88 Z"/>
    <path fill="#232323" d="M102.698064,18.31375 L100.20212,13.7475 L99.2559447,13.7475 L99.2559447,18.31375 L96.5152995,18.31375 L96.5152995,6.80875 L100.919908,6.80875 C101.474565,6.80875 102.015619,6.86562443 102.543088,6.979375 C103.070556,7.09312557 103.543638,7.28541531 103.96235,7.55625 C104.381062,7.82708469 104.715483,8.18458111 104.965622,8.62875 C105.215762,9.07291889 105.340829,9.62541336 105.340829,10.28625 C105.340829,11.0662539 105.128758,11.721664 104.704608,12.2525 C104.280459,12.783336 103.693183,13.1624989 102.942765,13.39 L105.960737,18.31375 L102.698064,18.31375 Z M102.583871,10.335 C102.583871,10.0641653 102.526775,9.84479251 102.412581,9.676875 C102.298387,9.50895749 102.151568,9.37895879 101.97212,9.286875 C101.792672,9.19479121 101.591476,9.13250016 101.368525,9.1 C101.145575,9.06749984 100.930784,9.05125 100.724147,9.05125 L99.2396313,9.05125 L99.2396313,11.7325 L100.561014,11.7325 C100.789402,11.7325 101.023225,11.7135419 101.262488,11.675625 C101.501752,11.6377081 101.719262,11.5700005 101.915023,11.4725 C102.110784,11.3749995 102.271198,11.2341676 102.396267,11.05 C102.521337,10.8658324 102.583871,10.6275015 102.583871,10.335 Z"/>
    <path fill="#68bc71" d="M12.6512986,0 C8.69689131,0 3.92688756,0.929914894 3.87976037e-06,2.9767234 C3.87976037e-06,7.3972766 -0.0542007083,18.4102128 12.6512986,25.935 C25.3570787,18.4102128 25.3031549,7.3972766 25.3031549,2.9767234 C21.3759904,0.929914894 16.6059867,0 12.6512986,0 L12.6512986,0 Z"/>
    <path fill="#67b279" d="M12.6383754,25.9273425 C-0.0541639467,18.4027433 3.87976037e-06,7.39577733 3.87976037e-06,2.9767234 C3.9226108,0.932144068 8.68650231,0.00202686119 12.6383754,3.30925217e-06 L12.6383754,25.9273451 Z"/>
    <path fill="#fff" d="M12.1898292,17.3046764 L19.8402793,6.99357039 C19.2796699,6.54422358 18.7879353,6.86136327 18.517241,7.10689078 L18.5073636,7.10767773 L12.1284291,13.7434783 L9.72501633,10.8511853 C8.57843655,9.52649092 7.01967536,10.536931 6.65554618,10.8039684 L12.1898292,17.3046764"/>
</svg>
